<svg width="20" height="19" viewBox="0 0 20 19" fill="none" xmlns="http://www.w3.org/2000/svg">
<g clip-path="url(#clip0_112_11)">
<path d="M7.45454 4.62122C7.45454 3.52144 8.3461 2.62988 9.44589 2.62988V2.62988C10.5457 2.62988 11.4372 3.52144 11.4372 4.62122V5.86581C11.4372 6.27823 11.1029 6.61257 10.6905 6.61257H9.44589C8.3461 6.61257 7.45454 5.72101 7.45454 4.62122V4.62122Z" fill="#F0E7B7"/>
<path d="M12.9307 3.52597C12.9307 1.8213 14.3126 0.439392 16.0173 0.439392V0.439392C17.722 0.439392 19.1039 1.8213 19.1039 3.52597V3.52597C19.1039 5.23064 17.722 6.61255 16.0173 6.61255H13.6775C13.2651 6.61255 12.9307 6.27822 12.9307 5.8658V3.52597Z" fill="#EF9A90"/>
<path d="M1.08224 13.3333C1.08224 10.4464 3.42257 8.10605 6.30952 8.10605H10.79C11.2025 8.10605 11.5368 8.44038 11.5368 8.8528V13.3333C11.5368 16.2203 9.19646 18.5606 6.30952 18.5606V18.5606C3.42257 18.5606 1.08224 16.2203 1.08224 13.3333V13.3333Z" fill="#AC54DB"/>
<path d="M13.0303 8.8528C13.0303 8.44038 13.3646 8.10605 13.7771 8.10605H15.7684C17.2806 8.10605 18.5065 9.33194 18.5065 10.8441V10.8441C18.5065 12.3564 17.2806 13.5822 15.7684 13.5822V13.5822C14.2562 13.5822 13.0303 12.3564 13.0303 10.8441V8.8528Z" fill="#B7DBF8"/>
</g>
<defs>
<clipPath id="clip0_112_11">
<rect width="18.619" height="18.1212" fill="white" transform="translate(0.484848 0.439392)"/>
</clipPath>
</defs>
</svg>
