<svg width="374" height="364" viewBox="0 0 374 364" fill="none" xmlns="http://www.w3.org/2000/svg">
<g clip-path="url(#clip0_107_7)">
<path d="M140 84C140 61.9086 157.909 44 180 44V44C202.091 44 220 61.9086 220 84V109C220 117.284 213.284 124 205 124H180C157.909 124 140 106.091 140 84V84Z" fill="#F0E7B7"/>
<path d="M250 62C250 27.7583 277.758 0 312 0V0C346.242 0 374 27.7583 374 62V62C374 96.2417 346.242 124 312 124H265C256.716 124 250 117.284 250 109V62Z" fill="#EF9A90"/>
<path d="M12 259C12 201.01 59.0101 154 117 154H207C215.284 154 222 160.716 222 169V259C222 316.99 174.99 364 117 364V364C59.0101 364 12 316.99 12 259V259Z" fill="#AC54DB"/>
<path d="M252 169C252 160.716 258.716 154 267 154H307C337.376 154 362 178.624 362 209V209C362 239.376 337.376 264 307 264V264C276.624 264 252 239.376 252 209V169Z" fill="#B7DBF8"/>
</g>
<defs>
<clipPath id="clip0_107_7">
<rect width="374" height="364" fill="white"/>
</clipPath>
</defs>
</svg>
